# xmcd
#
# Track frame offsets: 
#        150
#        17225
#        31454
#        42529
#        53819
#        66183
#        77236
#        93431
#        109650
#        119127
#        133539
#        144558
#        157629
#        172561
#        185061
#        197287
#        208815
#
# Disc length: 2946 seconds
#
# Revision: 0
# Processed by: cddbd v1.5.2PL0 Copyright (c) Steve Scherf et al.
# Submitted via: ExactAudioCopy v0.99pb4
#
DISCID=ea0b8011
DTITLE=The Great Lost Blind Boys Album - The Original Blind Boys of Mi
DTITLE=ssissippi
DYEAR=2001
DGENRE=Gospel
TTITLE0=Let's Have Church (aka Mercy)
TTITLE1=I'm Willing To Run
TTITLE2=You Don't Know
TTITLE3=Where There's A Will
TTITLE4=All Over Me
TTITLE5=I'm A Soldier
TTITLE6=Jesus Loves Me
TTITLE7=I'm A-Rolling
TTITLE8=My Robe Will Fit Me
TTITLE9=My Robe Will Fit Me (separate take)
TTITLE10=No Need To Cry
TTITLE11=I Never Heard A Man
TTITLE12=Oh Why
TTITLE13=Don't Forget The Bridge
TTITLE14=Waiting At The River
TTITLE15=Somebody's Mother
TTITLE16=In The Hands Of The Lord
EXTD=
EXTT0=
EXTT1=
EXTT2=
EXTT3=
EXTT4=
EXTT5=
EXTT6=
EXTT7=
EXTT8=
EXTT9=
EXTT10=
EXTT11=
EXTT12=
EXTT13=
EXTT14=
EXTT15=
EXTT16=
PLAYORDER=
